<svg width="512" height="482" viewBox="0 0 512 482" fill="none" xmlns="http://www.w3.org/2000/svg">
<path d="M469.04 42.8893C409.896 -16.5884 312.287 -13.6318 255.976 48.1931C199.66 -13.6296 102.056 -16.5895 42.9116 42.8904C-15.9019 101.461 -13.8984 197.909 46.6999 254.44C15.6977 284.049 33.4584 337.256 75.6558 342.443C73.1281 371.337 97.7213 397.834 126.812 397.343C128.595 429.152 160.521 451.921 191.129 443.515C201.171 481.411 249.444 494.36 277.138 466.469C292.867 450.834 305.375 440.975 306.173 417.295C332.163 416.571 354.649 393.779 355.045 367.805C381.284 367.4 404.145 344.531 404.549 318.3C431.77 317.887 455.371 293.319 454.104 265.584L469.037 250.652C526.319 193.371 526.319 100.169 469.04 42.8893V42.8893ZM69.2162 278.348L83.2423 264.322C86.8675 260.697 91.6275 258.885 96.3896 258.885C112.718 258.776 121.241 278.964 109.535 290.615L95.5088 304.641C77.353 321.355 52.4994 296.512 69.2162 278.348V278.348ZM108.326 345.951C108.326 340.984 110.26 336.315 113.772 332.803L127.805 318.771C131.316 315.264 135.982 313.332 140.944 313.332C157.411 313.304 165.758 333.445 154.09 345.071L141.714 357.447C137.932 361.734 132.735 364.635 126.917 364.542C116.925 364.748 108.119 355.944 108.326 345.951V345.951ZM164.927 406.951C157.714 400.031 157.714 387.579 164.927 380.659L177.303 368.282C184.518 359.716 197.185 358.601 205.246 366.632C212.495 373.881 212.495 385.674 205.246 392.924L191.219 406.952C183.971 414.203 172.176 414.202 164.927 406.951V406.951ZM267.953 429.23L253.927 443.256C250.416 446.768 245.747 448.703 240.781 448.703C235.814 448.703 231.145 446.768 227.634 443.256C220.422 436.335 220.419 423.884 227.635 416.964L241.66 402.938C248.908 395.689 260.704 395.689 267.952 402.937C275.165 409.858 275.166 422.309 267.953 429.23V429.23ZM415.85 280.096C408.929 287.308 396.478 287.309 389.558 280.096L316.509 207.047L293.297 230.259L366.346 303.308C373.594 310.557 373.594 322.351 366.346 329.6C359.096 336.852 347.303 336.85 340.053 329.6L268.243 257.791L267.005 256.552L243.792 279.764L245.031 281.003L316.841 352.813C324.09 360.062 324.09 371.857 316.841 379.106C309.591 386.356 297.797 386.356 290.547 379.106L290.533 379.121C277.195 366.226 258.555 361.98 241.719 366.384C236.359 344.483 214.344 327.903 192.205 328.386C191.132 304.814 171.203 283.52 147.653 280.975C150.761 240.532 106.343 212.68 71.2898 232.603C22.4711 188.995 19.4641 112.443 66.1261 66.1016C112.52 19.3827 189.176 22.4783 232.766 71.4054L192.184 111.987L224.702 144.504C249.68 169.485 288.172 172.922 316.87 154.819L415.854 253.803C423.099 261.051 423.099 272.846 415.85 280.096V280.096ZM445.827 227.439L440.826 232.44C440.255 231.812 439.668 231.195 439.064 230.591L318.161 109.686L306.554 121.292C290.387 137.458 264.082 137.461 247.912 121.292L238.607 111.987L284.492 66.1016C395.953 -36.4873 548.394 116.051 445.827 227.439Z" fill="#098C6B"/>
</svg>
